<svg width="32" height="32" viewBox="0 0 30 30" fill="none" xmlns="http://www.w3.org/2000/svg">
    <rect x="0.5" y="0.5" width="29" height="29" rx="9.5" opacity="0"/>
    <path d="M19.8503 3H10.1497C6.20735 3 3 6.20735 3 10.1497V19.8503C3 23.7926 6.20735 27 10.1497 27H19.8503C23.7926 27 27 23.7926 27 19.8503V10.1497C27 6.20735 23.7926 3 19.8503 3ZM24.5856 19.8503C24.5856 22.4655 22.4655 24.5856 19.8503 24.5856H10.1497C7.5345 24.5856 5.4144 22.4655 5.4144 19.8503V10.1497C5.4144 7.53446 7.5345 5.4144 10.1497 5.4144H19.8503C22.4655 5.4144 24.5856 7.53446 24.5856 10.1497V19.8503Z" fill="#FDFDDF"/>
    <path d="M15.0005 8.79272C11.5778 8.79272 8.79321 11.5773 8.79321 14.9999C8.79321 18.4226 11.5778 21.2072 15.0005 21.2072C18.4232 21.2072 21.2077 18.4226 21.2077 14.9999C21.2077 11.5772 18.4232 8.79272 15.0005 8.79272ZM15.0005 18.7928C12.9057 18.7928 11.2076 17.0947 11.2076 15C11.2076 12.9052 12.9058 11.2071 15.0005 11.2071C17.0952 11.2071 18.7933 12.9052 18.7933 15C18.7933 17.0947 17.0952 18.7928 15.0005 18.7928Z" fill="#FDFDDF"/>
    <path d="M21.2193 10.3268C22.0407 10.3268 22.7066 9.6609 22.7066 8.83944C22.7066 8.01798 22.0407 7.35205 21.2193 7.35205C20.3978 7.35205 19.7319 8.01798 19.7319 8.83944C19.7319 9.6609 20.3978 10.3268 21.2193 10.3268Z" fill="#FDFDDF"/>
</svg>
