<svg width="28" height="28" viewBox="0 0 24 24" fill="none" xmlns="http://www.w3.org/2000/svg">
    <g clip-path="url(#clip0)">
    <path d="M24 4.7161C23.1174 5.09683 22.157 5.37083 21.1676 5.47755C22.1948 4.86734 22.9639 3.90332 23.3308 2.76634C22.367 3.3397 21.3111 3.74175 20.2101 3.95466C19.7499 3.46268 19.1933 3.07074 18.575 2.80328C17.9567 2.53581 17.2899 2.39855 16.6163 2.40004C13.8906 2.40004 11.6986 4.60939 11.6986 7.3206C11.6986 7.70132 11.7447 8.08205 11.8197 8.44835C7.73849 8.23491 4.09855 6.28515 1.67864 3.29993C1.23771 4.05306 1.00665 4.91058 1.00949 5.78328C1.00949 7.49077 1.87766 8.99636 3.20154 9.88183C2.42136 9.8511 1.65944 9.63666 0.977767 9.25594V9.31651C0.977767 11.7076 2.66795 13.6891 4.92056 14.1448C4.49761 14.2546 4.06251 14.3108 3.62553 14.3121C3.30537 14.3121 3.00252 14.2803 2.69679 14.2371C3.31979 16.1868 5.134 17.603 7.29432 17.6492C5.60413 18.973 3.48708 19.7518 1.18832 19.7518C0.775868 19.7518 0.395145 19.7374 0 19.6912C2.18051 21.0901 4.7677 21.8977 7.5539 21.8977C16.599 21.8977 21.5484 14.4044 21.5484 7.90034C21.5484 7.6869 21.5484 7.47346 21.534 7.26003C22.4915 6.55915 23.3308 5.69099 24 4.7161Z" fill="#FDFDDF"/>
    </g>
    <defs>
    <clipPath id="clip0">
    <rect width="24" height="24" fill="white"/>
    </clipPath>
    </defs>
</svg>
